<svg fill="none" height="458" viewBox="0 0 354 458" width="354" xmlns="http://www.w3.org/2000/svg" xmlns:xlink="http://www.w3.org/1999/xlink"><filter id="a" color-interpolation-filters="sRGB" filterUnits="userSpaceOnUse" height="106.081" width="95.7642" x="191.435" y="264.141"><feFlood flood-opacity="0" result="BackgroundImageFix"/><feColorMatrix in="SourceAlpha" type="matrix" values="0 0 0 0 0 0 0 0 0 0 0 0 0 0 0 0 0 0 127 0"/><feOffset dy="3.3046"/><feGaussianBlur stdDeviation="6.6092"/><feColorMatrix type="matrix" values="0 0 0 0 0 0 0 0 0 0 0 0 0 0 0 0 0 0 0.08 0"/><feBlend in2="BackgroundImageFix" mode="normal" result="effect1_dropShadow"/><feBlend in="SourceGraphic" in2="effect1_dropShadow" mode="normal" result="shape"/></filter><filter id="b" color-interpolation-filters="sRGB" filterUnits="userSpaceOnUse" height="34.6206" width="154.732" x="191.091" y="365.557"><feFlood flood-opacity="0" result="BackgroundImageFix"/><feColorMatrix in="SourceAlpha" type="matrix" values="0 0 0 0 0 0 0 0 0 0 0 0 0 0 0 0 0 0 127 0"/><feOffset dy="3.3046"/><feGaussianBlur stdDeviation="6.6092"/><feColorMatrix type="matrix" values="0 0 0 0 0 0 0 0 0 0 0 0 0 0 0 0 0 0 0.08 0"/><feBlend in2="BackgroundImageFix" mode="normal" result="effect1_dropShadow"/><feBlend in="SourceGraphic" in2="effect1_dropShadow" mode="normal" result="shape"/></filter><filter id="c" color-interpolation-filters="sRGB" filterUnits="userSpaceOnUse" height="50.6397" width="154.345" x="191.407" y="115.662"><feFlood flood-opacity="0" result="BackgroundImageFix"/><feColorMatrix in="SourceAlpha" type="matrix" values="0 0 0 0 0 0 0 0 0 0 0 0 0 0 0 0 0 0 127 0"/><feOffset dy="3.3046"/><feGaussianBlur stdDeviation="6.6092"/><feColorMatrix type="matrix" values="0 0 0 0 0 0 0 0 0 0 0 0 0 0 0 0 0 0 0.08 0"/><feBlend in2="BackgroundImageFix" mode="normal" result="effect1_dropShadow"/><feBlend in="SourceGraphic" in2="effect1_dropShadow" mode="normal" result="shape"/></filter><filter id="d" color-interpolation-filters="sRGB" filterUnits="userSpaceOnUse" height="36.4786" width="141.423" x="190.975" y="149.031"><feFlood flood-opacity="0" result="BackgroundImageFix"/><feColorMatrix in="SourceAlpha" type="matrix" values="0 0 0 0 0 0 0 0 0 0 0 0 0 0 0 0 0 0 127 0"/><feOffset dy="3.3046"/><feGaussianBlur stdDeviation="6.6092"/><feColorMatrix type="matrix" values="0 0 0 0 0 0 0 0 0 0 0 0 0 0 0 0 0 0 0.08 0"/><feBlend in2="BackgroundImageFix" mode="normal" result="effect1_dropShadow"/><feBlend in="SourceGraphic" in2="effect1_dropShadow" mode="normal" result="shape"/></filter><filter id="e" color-interpolation-filters="sRGB" filterUnits="userSpaceOnUse" height="112.598" width="112.598" x="17.6063" y="102.803"><feFlood flood-opacity="0" result="BackgroundImageFix"/><feColorMatrix in="SourceAlpha" type="matrix" values="0 0 0 0 0 0 0 0 0 0 0 0 0 0 0 0 0 0 127 0"/><feOffset dy="11.5661"/><feGaussianBlur stdDeviation="15.6968"/><feColorMatrix type="matrix" values="0 0 0 0 0 0 0 0 0 0 0 0 0 0 0 0 0 0 0.24 0"/><feBlend in2="BackgroundImageFix" mode="normal" result="effect1_dropShadow"/><feBlend in="SourceGraphic" in2="effect1_dropShadow" mode="normal" result="shape"/></filter><filter id="f" color-interpolation-filters="sRGB" filterUnits="userSpaceOnUse" height="38.9786" width="50.3718" x="48.1415" y="132.115"><feFlood flood-opacity="0" result="BackgroundImageFix"/><feColorMatrix in="SourceAlpha" type="matrix" values="0 0 0 0 0 0 0 0 0 0 0 0 0 0 0 0 0 0 127 0"/><feOffset dy="3.3046"/><feGaussianBlur stdDeviation="6.6092"/><feColorMatrix type="matrix" values="0 0 0 0 0 0 0 0 0 0 0 0 0 0 0 0 0 0 0.08 0"/><feBlend in2="BackgroundImageFix" mode="normal" result="effect1_dropShadow"/><feBlend in="SourceGraphic" in2="effect1_dropShadow" mode="normal" result="shape"/></filter><linearGradient id="g"><stop offset="0" stop-color="#e65678"/><stop offset="1" stop-color="#e65678" stop-opacity="0"/></linearGradient><linearGradient id="h" gradientUnits="userSpaceOnUse" x1="161.084" x2="105.441" xlink:href="#g" y1="148" y2="148"/><linearGradient id="i" gradientUnits="userSpaceOnUse" x1="161.084" x2="105.441" xlink:href="#g" y1="331" y2="331"/><path d="m103 147h82" stroke="url(#h)" stroke-width="1.6523"/><path d="m103 330h82" stroke="url(#i)" stroke-width="1.6523"/><rect fill="#172231" height="63.3" rx="4.41307" stroke="#1eb4d4" stroke-width=".82615" width="146.88" x=".686046" y="197.355"/><rect fill="#223043" height="167.174" rx="2.89152" stroke="#e65678" stroke-width=".82615" transform="matrix(0 1 -1 0 613 -94.174)" width="142.174" x="353.587" y="259.413"/><g filter="url(#a)"><path d="m208.498 281.239h-.075c-.15.337-.358.605-.623.806-.258.2-.601.301-1.031.301-.315 0-.605-.058-.87-.172-.258-.122-.48-.301-.666-.537-.186-.244-.329-.548-.429-.913-.101-.365-.151-.791-.151-1.278 0-.974.194-1.701.58-2.18.387-.48.899-.72 1.536-.72.43 0 .773.1 1.031.301.265.2.473.469.623.805h.075v-.977h1.375v7.69h-1.375zm-1.149.011c.157 0 .304-.018.44-.054.143-.043.265-.1.365-.171.108-.079.19-.176.247-.29.065-.122.097-.262.097-.419v-1.74c0-.158-.032-.294-.097-.408-.057-.122-.139-.219-.247-.29-.1-.079-.222-.136-.365-.172-.136-.043-.283-.065-.44-.065-.401 0-.712.122-.934.366-.215.243-.323.576-.323.998v.881c0 .423.108.755.323.999.222.243.533.365.934.365zm7.524-.011h-.053c-.122.301-.312.562-.569.784-.251.215-.602.323-1.053.323-.544 0-.988-.179-1.332-.537-.336-.366-.505-.885-.505-1.558v-3.576h1.375v3.383c0 .802.347 1.203 1.042 1.203.136 0 .268-.018.397-.054.136-.036.255-.089.355-.161.107-.079.19-.172.247-.279.064-.108.096-.236.096-.387v-3.705h1.375v5.542h-1.375zm5.527 1.107c-.444 0-.837-.068-1.181-.205-.344-.136-.634-.329-.87-.579-.229-.251-.405-.552-.526-.903-.122-.358-.183-.759-.183-1.202 0-.452.061-.856.183-1.214.129-.358.308-.662.537-.913s.505-.444.827-.58c.329-.136.698-.204 1.106-.204.401 0 .762.068 1.085.204.322.129.594.315.816.559.229.243.404.537.526.88.122.344.183.723.183 1.139v.451h-3.888v.139c0 .401.125.727.376.978.25.243.601.365 1.052.365.344 0 .638-.068.881-.204.251-.143.458-.33.623-.559l.784.784c-.201.294-.494.544-.881.752-.379.208-.863.312-1.45.312zm-.096-4.79c-.387 0-.698.121-.935.365-.236.243-.354.565-.354.966v.075h2.513v-.096c0-.401-.111-.72-.333-.956-.215-.236-.512-.354-.891-.354zm3.991 3.576h1.374v-3.372h-1.374v-1.085h2.749v1.514h.086c.05-.193.118-.379.204-.558.093-.186.208-.348.344-.484.143-.143.315-.257.515-.343.201-.086.441-.129.72-.129h.601v1.289h-1.138c-.415 0-.741.121-.977.365-.237.243-.355.555-.355.934v1.869h1.923v1.085h-4.672zm10.37-4.457h1.397l-2.653 6.53c-.151.379-.351.666-.602.859-.25.2-.605.301-1.063.301h-1.009v-1.085h1.321l.418-1.117-2.234-5.488h1.461l.849 2.32.59 1.761h.075l.591-1.761zm11.656 7.024c-.43 0-.742-.1-.935-.301-.193-.2-.29-.458-.29-.773v-.537c0-.186.018-.347.054-.484.043-.143.093-.268.15-.375.058-.108.122-.204.194-.29.071-.086.139-.169.204-.247.121-.144.204-.265.247-.366.05-.107.075-.218.075-.332 0-.43-.415-.645-1.246-.645h-.934v-.945h.934c.831 0 1.246-.215 1.246-.644 0-.115-.025-.222-.075-.323-.043-.107-.126-.232-.247-.375-.065-.079-.133-.162-.204-.248-.072-.085-.136-.182-.194-.289-.057-.108-.107-.23-.15-.366-.036-.143-.054-.308-.054-.494v-.537c0-.315.097-.572.29-.773.193-.2.505-.301.935-.301h1.9v.945h-2.008v.602c0 .279.043.494.129.644.086.151.186.297.301.441.121.15.236.311.343.483.108.172.161.372.161.601 0 .301-.103.544-.311.731-.208.179-.515.293-.924.343v.065c.409.05.716.168.924.354.208.179.311.419.311.72 0 .229-.053.429-.161.601-.107.172-.222.333-.343.484-.115.143-.215.289-.301.44-.086.15-.129.365-.129.644v.602h2.008v.945zm-28.53 6.976h1.374v.977h.075c.151-.336.355-.605.613-.805.265-.201.612-.301 1.041-.301.315 0 .602.061.86.183.264.114.49.293.676.537.186.236.33.537.43.902s.15.791.15 1.278-.05.913-.15 1.278-.244.669-.43.913c-.186.236-.412.415-.676.537-.258.114-.545.172-.86.172-.429 0-.776-.101-1.041-.301-.258-.201-.462-.469-.613-.806h-.075v3.126h-1.374zm2.523 4.575c.401 0 .709-.122.924-.365.222-.244.333-.576.333-.999v-.881c0-.422-.111-.755-.333-.998-.215-.244-.523-.366-.924-.366-.315 0-.587.079-.816.237-.222.15-.333.383-.333.698v1.74c0 .315.111.551.333.709.229.15.501.225.816.225zm3.981-.118h1.374v-3.372h-1.374v-1.085h2.749v1.514h.086c.05-.193.118-.379.204-.558.093-.186.208-.348.344-.484.143-.143.315-.257.515-.343.201-.086.441-.129.72-.129h.601v1.289h-1.138c-.415 0-.741.121-.977.365-.237.243-.355.555-.355.934v1.869h1.923v1.085h-4.672zm8.856 1.214c-.422 0-.802-.068-1.138-.205-.33-.136-.613-.329-.849-.579-.229-.251-.408-.555-.537-.913-.122-.358-.182-.759-.182-1.203s.06-.845.182-1.203c.129-.358.308-.662.537-.913.236-.251.519-.444.849-.58.336-.136.716-.204 1.138-.204.415 0 .791.068 1.128.204.336.136.619.329.848.58.236.251.415.555.537.913.129.358.193.759.193 1.203s-.064.845-.193 1.203c-.122.358-.301.662-.537.913-.229.25-.512.443-.848.579-.337.137-.713.205-1.128.205zm0-1.053c.394 0 .705-.118.934-.354.229-.244.344-.598.344-1.064v-.859c0-.465-.115-.816-.344-1.052-.229-.244-.54-.366-.934-.366s-.705.122-.934.366c-.229.236-.344.587-.344 1.052v.859c0 .466.115.82.344 1.064.229.236.54.354.934.354zm4.023-.161h1.697v-3.372h-1.804v-1.085h1.804v-.902c0-.222.029-.423.086-.602.065-.186.161-.343.29-.472.129-.136.29-.24.483-.312.201-.079.434-.118.698-.118h1.869v1.085h-2.051v1.321h2.051v1.085h-2.051v3.372h1.804v1.085h-4.876zm9.2-5.316c-.322 0-.551-.068-.687-.204-.129-.136-.193-.301-.193-.494v-.258c0-.194.064-.358.193-.494.136-.136.365-.204.687-.204s.548.068.677.204c.136.136.204.3.204.494v.258c0 .193-.068.358-.204.494-.129.136-.355.204-.677.204zm-2.513 5.316h1.826v-3.372h-1.826v-1.085h3.201v4.457h1.696v1.085h-4.897zm6.161 0h1.761v-5.778h-1.761v-1.085h3.136v6.863h1.772v1.085h-4.908zm9.017 1.214c-.444 0-.838-.068-1.181-.205-.344-.136-.634-.329-.87-.579-.229-.251-.405-.552-.527-.903-.121-.358-.182-.759-.182-1.202 0-.452.061-.856.182-1.214.129-.358.308-.662.537-.913s.505-.444.827-.58c.33-.136.698-.204 1.107-.204.401 0 .762.068 1.084.204.322.129.595.315.817.559.229.243.404.537.526.88.122.344.182.723.182 1.139v.451h-3.887v.139c0 .401.125.727.375.978.251.243.602.365 1.053.365.344 0 .637-.068.881-.204.25-.143.458-.33.623-.559l.784.784c-.201.294-.495.544-.881.752-.38.208-.863.312-1.45.312zm-.097-4.79c-.386 0-.698.121-.934.365-.236.243-.354.565-.354.966v.075h2.513v-.096c0-.401-.111-.72-.333-.956-.215-.236-.512-.354-.892-.354zm13.138 6.143c-.43 0-.741-.1-.935-.301-.193-.2-.29-.458-.29-.773v-.537c0-.186.018-.347.054-.484.043-.143.093-.268.15-.375.058-.108.122-.204.194-.29.071-.086.139-.169.204-.247.121-.144.204-.265.247-.366.05-.107.075-.218.075-.332 0-.43-.415-.645-1.246-.645h-.934v-.945h.934c.831 0 1.246-.215 1.246-.644 0-.115-.025-.222-.075-.323-.043-.107-.126-.232-.247-.375-.065-.079-.133-.162-.204-.248-.072-.085-.136-.182-.194-.289-.057-.108-.107-.23-.15-.366-.036-.143-.054-.308-.054-.494v-.537c0-.315.097-.572.29-.773.194-.2.505-.301.935-.301h1.901v.945h-2.009v.602c0 .279.043.494.129.644.086.151.186.297.301.441.122.15.236.311.343.483.108.172.162.372.162.601 0 .301-.104.544-.312.731-.208.179-.515.293-.924.343v.065c.409.05.716.168.924.354.208.179.312.419.312.72 0 .229-.054.429-.162.601-.107.172-.221.333-.343.484-.115.143-.215.289-.301.44-.086.15-.129.365-.129.644v.602h2.009v.945zm-38.585 6.117c-.323 0-.552-.068-.688-.204-.129-.136-.193-.301-.193-.494v-.258c0-.194.064-.358.193-.494.136-.136.365-.204.688-.204.322 0 .547.068.676.204.136.136.204.3.204.494v.258c0 .193-.068.358-.204.494-.129.136-.354.204-.676.204zm-2.513 5.316h1.825v-3.372h-1.825v-1.085h3.2v4.457h1.697v1.085h-4.897zm9.715.107h-.075c-.151.337-.358.605-.623.806-.258.2-.602.301-1.031.301-.315 0-.605-.058-.87-.172-.258-.122-.48-.301-.666-.537-.186-.244-.329-.548-.43-.913-.1-.365-.15-.791-.15-1.278 0-.974.193-1.701.58-2.18.387-.48.899-.72 1.536-.72.429 0 .773.1 1.031.301.265.2.472.469.623.805h.075v-3.383h1.375v7.948h-1.375zm-1.149.011c.157 0 .304-.018.44-.054.143-.043.265-.1.365-.171.108-.079.19-.176.247-.29.065-.122.097-.262.097-.419v-1.74c0-.158-.032-.294-.097-.408-.057-.122-.139-.219-.247-.29-.1-.079-.222-.136-.365-.172-.136-.043-.283-.065-.44-.065-.401 0-.713.122-.935.366-.214.243-.322.576-.322.998v.881c0 .423.108.755.322.999.222.243.534.365.935.365zm-8.813 14.967v-5.542h1.374v.977h.054c.122-.301.308-.558.558-.773.258-.222.613-.333 1.064-.333.544 0 .984.183 1.321.548.343.358.515.873.515 1.546v3.577h-1.375v-3.383c0-.802-.347-1.203-1.041-1.203-.144 0-.28.018-.408.053-.129.036-.247.093-.355.172-.1.072-.182.161-.247.269-.057.107-.086.236-.086.386v3.706zm10.896 0c-.336 0-.597-.083-.784-.247-.179-.172-.286-.408-.322-.709h-.054c-.1.343-.297.612-.59.805-.294.186-.655.28-1.085.28-.558 0-1.002-.147-1.332-.441-.329-.293-.494-.701-.494-1.224 0-1.117.82-1.676 2.46-1.676h.977v-.365c0-.351-.086-.615-.258-.794s-.451-.269-.837-.269c-.351 0-.634.068-.849.204s-.397.312-.548.526l-.784-.666c.172-.307.448-.565.827-.773.387-.215.885-.322 1.493-.322.73 0 1.3.172 1.708.516.415.336.623.841.623 1.514v2.61h.655v1.031zm-2.373-.817c.329 0 .601-.075.816-.225.222-.158.333-.369.333-.634v-.741h-.945c-.752 0-1.128.236-1.128.709v.215c0 .222.083.39.247.505.165.114.39.171.677.171zm3.948.817v-5.542h1.138v.762h.065c.086-.243.207-.451.365-.623.165-.179.394-.268.687-.268.28 0 .502.082.666.247.165.158.272.383.322.677h.054c.093-.251.229-.466.408-.645.186-.186.448-.279.784-.279.408 0 .702.147.881.44.179.294.268.727.268 1.3v3.931h-1.127v-3.77c0-.322-.047-.548-.14-.677-.086-.129-.218-.193-.397-.193-.165 0-.305.054-.419.161-.108.108-.161.272-.161.494v3.985h-1.139v-3.77c0-.322-.043-.548-.129-.677-.085-.129-.218-.193-.397-.193-.172 0-.315.054-.43.161-.107.108-.161.272-.161.494v3.985zm9.393.129c-.444 0-.838-.068-1.181-.205-.344-.136-.634-.329-.87-.579-.229-.251-.405-.552-.526-.903-.122-.358-.183-.759-.183-1.202 0-.452.061-.856.183-1.214.128-.358.307-.662.537-.913.229-.251.504-.444.827-.58.329-.136.698-.204 1.106-.204.401 0 .762.068 1.085.204.322.129.594.315.816.559.229.243.404.537.526.88.122.344.183.723.183 1.139v.451h-3.888v.139c0 .401.125.727.376.978.25.243.601.365 1.052.365.344 0 .637-.068.881-.204.25-.143.458-.33.623-.559l.784.784c-.201.294-.494.544-.881.752-.379.208-.863.312-1.45.312zm-.096-4.79c-.387 0-.699.121-.935.365-.236.243-.354.565-.354.966v.075h2.513v-.096c0-.401-.111-.72-.333-.956-.215-.236-.512-.354-.891-.354zm-32.522 10.498c.43 0 .742.101.935.301.193.201.29.458.29.773v.537c0 .186-.022.351-.065.494-.035.136-.082.258-.139.366-.058.107-.122.204-.194.289-.071.086-.139.169-.204.248-.121.143-.207.268-.257.375-.043.101-.065.208-.065.323 0 .429.415.644 1.246.644h.934v.945h-.934c-.831 0-1.246.215-1.246.645 0 .114.022.225.065.332.05.101.136.222.257.366.065.078.133.161.204.247.072.086.136.182.194.29.057.107.104.232.139.375.043.137.065.298.065.484v.537c0 .315-.097.573-.29.773-.193.201-.505.301-.935.301h-1.9v-.945h2.008v-.602c0-.279-.043-.494-.129-.644-.086-.151-.186-.297-.301-.44-.121-.151-.236-.312-.343-.484-.108-.172-.162-.372-.162-.601 0-.301.104-.541.312-.72.208-.186.515-.304.924-.354v-.065c-.409-.05-.716-.164-.924-.343-.208-.187-.312-.43-.312-.731 0-.229.054-.429.162-.601.107-.172.222-.333.343-.483.115-.144.215-.29.301-.441.086-.15.129-.365.129-.644v-.602h-2.008v-.945zm-12.879 14c.43 0 .741.101.934.301.194.201.29.458.29.773v.537c0 .186-.021.351-.064.494-.036.136-.082.258-.14.366-.057.107-.121.204-.193.289-.072.086-.14.169-.204.248-.122.143-.208.268-.258.375-.043.101-.064.208-.064.323 0 .429.415.644 1.245.644h.935v.945h-.935c-.83 0-1.245.215-1.245.645 0 .114.021.225.064.332.05.101.136.222.258.366.064.078.132.161.204.247s.136.182.193.29c.058.107.104.232.14.375.043.137.064.298.064.484v.537c0 .315-.096.573-.29.773-.193.201-.504.301-.934.301h-1.901v-.945h2.008v-.602c0-.279-.043-.494-.129-.644-.085-.151-.186-.297-.3-.44-.122-.151-.237-.312-.344-.484s-.161-.372-.161-.601c0-.301.104-.541.311-.72.208-.186.516-.304.924-.354v-.065c-.408-.05-.716-.164-.924-.343-.207-.187-.311-.43-.311-.731 0-.229.054-.429.161-.601s.222-.333.344-.483c.114-.144.215-.29.3-.441.086-.15.129-.365.129-.644v-.602h-2.008v-.945z" fill="#f8f8f8"/></g><g filter="url(#b)"><path d="m208.992 383.526-.526-1.901h-2.223l-.516 1.901h-1.417l2.105-7.497h1.954l2.116 7.497zm-1.589-6.112h-.086l-.827 3.061h1.74zm7.47 5.134h-.053c-.122.301-.312.562-.569.784-.251.215-.602.322-1.053.322-.544 0-.988-.179-1.332-.537-.336-.365-.505-.884-.505-1.557v-3.576h1.375v3.383c0 .802.347 1.203 1.042 1.203.136 0 .268-.018.397-.054.136-.036.255-.09.355-.161.107-.079.19-.172.247-.279.064-.108.096-.237.096-.387v-3.705h1.375v5.542h-1.375zm5.774.978c-.529 0-.92-.14-1.17-.419-.251-.28-.376-.641-.376-1.085v-2.954h-1.611v-1.084h1.095c.222 0 .38-.043.473-.129.093-.093.139-.254.139-.483v-1.343h1.279v1.955h2.255v1.084h-2.255v3.373h2.255v1.085zm3.648-7.948h1.374v3.383h.054c.122-.301.308-.558.559-.773.257-.222.612-.333 1.063-.333.544 0 .984.182 1.321.548.344.358.515.873.515 1.546v3.577h-1.374v-3.384c0-.801-.348-1.202-1.042-1.202-.143 0-.279.017-.408.053s-.247.093-.355.172c-.1.072-.182.161-.247.269-.057.107-.086.236-.086.386v3.706h-1.374zm8.856 8.076c-.422 0-.802-.068-1.138-.204-.33-.136-.613-.329-.849-.58-.229-.25-.408-.555-.537-.913-.122-.358-.182-.758-.182-1.202s.06-.845.182-1.203c.129-.358.308-.663.537-.913.236-.251.519-.444.849-.58.336-.136.716-.204 1.138-.204.415 0 .791.068 1.128.204.336.136.619.329.848.58.236.25.415.555.537.913.129.358.193.759.193 1.203s-.064.844-.193 1.202c-.122.358-.301.663-.537.913-.229.251-.512.444-.848.58-.337.136-.713.204-1.128.204zm0-1.052c.394 0 .705-.118.934-.355.229-.243.344-.597.344-1.063v-.859c0-.465-.115-.816-.344-1.053-.229-.243-.54-.365-.934-.365s-.705.122-.934.365c-.229.237-.344.588-.344 1.053v.859c0 .466.115.82.344 1.063.229.237.54.355.934.355zm4.023-.161h1.375v-3.373h-1.375v-1.084h2.75v1.514h.086c.05-.193.118-.379.204-.558.093-.187.207-.348.343-.484.144-.143.315-.258.516-.343.2-.086.44-.129.719-.129h.602v1.288h-1.139c-.415 0-.741.122-.977.366-.236.243-.354.555-.354.934v1.869h1.922v1.085h-4.672zm9.2-5.316c-.322 0-.551-.069-.687-.205-.129-.136-.193-.3-.193-.494v-.257c0-.194.064-.358.193-.494.136-.136.365-.204.687-.204s.548.068.677.204c.136.136.204.3.204.494v.257c0 .194-.068.358-.204.494-.129.136-.355.205-.677.205zm-2.513 5.316h1.826v-3.373h-1.826v-1.084h3.201v4.457h1.696v1.085h-4.897zm6.161 1.085v-1.171l3.222-3.287h-3.115v-1.084h4.683v1.17l-3.222 3.287h3.329v1.085zm10.929 0c-.337 0-.598-.083-.784-.248-.179-.171-.287-.408-.323-.708h-.053c-.1.343-.297.612-.591.805-.293.186-.655.279-1.085.279-.558 0-1.002-.146-1.331-.44-.33-.294-.494-.702-.494-1.224 0-1.117.819-1.676 2.459-1.676h.977v-.365c0-.351-.086-.616-.257-.795-.172-.179-.452-.268-.838-.268-.351 0-.634.068-.849.204-.214.136-.397.311-.547.526l-.784-.666c.171-.308.447-.565.827-.773.386-.215.884-.322 1.492-.322.731 0 1.3.172 1.708.515.415.337.623.842.623 1.515v2.609h.655v1.032zm-2.374-.817c.33 0 .602-.075.816-.225.222-.158.333-.369.333-.634v-.741h-.945c-.752 0-1.127.236-1.127.709v.215c0 .222.082.39.247.504.164.115.39.172.676.172zm7.149.817c-.53 0-.92-.14-1.171-.419-.25-.28-.376-.641-.376-1.085v-2.954h-1.611v-1.084h1.096c.222 0 .379-.043.472-.129.093-.093.14-.254.14-.483v-1.343h1.278v1.955h2.255v1.084h-2.255v3.373h2.255v1.085zm6.407-6.401c-.322 0-.551-.069-.687-.205-.129-.136-.193-.3-.193-.494v-.257c0-.194.064-.358.193-.494.136-.136.365-.204.687-.204.323 0 .548.068.677.204.136.136.204.3.204.494v.257c0 .194-.068.358-.204.494-.129.136-.354.205-.677.205zm-2.513 5.316h1.826v-3.373h-1.826v-1.084h3.201v4.457h1.697v1.085h-4.898zm8.609 1.213c-.422 0-.802-.068-1.138-.204-.329-.136-.612-.329-.848-.58-.23-.25-.409-.555-.537-.913-.122-.358-.183-.758-.183-1.202s.061-.845.183-1.203c.128-.358.307-.663.537-.913.236-.251.519-.444.848-.58.336-.136.716-.204 1.138-.204.416 0 .792.068 1.128.204.337.136.619.329.849.58.236.25.415.555.537.913.128.358.193.759.193 1.203s-.065.844-.193 1.202c-.122.358-.301.663-.537.913-.23.251-.512.444-.849.58-.336.136-.712.204-1.128.204zm0-1.052c.394 0 .706-.118.935-.355.229-.243.343-.597.343-1.063v-.859c0-.465-.114-.816-.343-1.053-.229-.243-.541-.365-.935-.365-.393 0-.705.122-.934.365-.229.237-.344.588-.344 1.053v.859c0 .466.115.82.344 1.063.229.237.541.355.934.355zm4.024.924v-5.542h1.374v.977h.054c.122-.301.308-.558.559-.773.257-.222.612-.333 1.063-.333.544 0 .984.182 1.321.548.344.358.515.873.515 1.546v3.577h-1.374v-3.384c0-.801-.348-1.202-1.042-1.202-.143 0-.279.017-.408.053s-.247.093-.355.172c-.1.072-.182.161-.247.269-.057.107-.086.236-.086.386v3.706zm8.856.118c-.372 0-.637-.079-.795-.237-.157-.157-.236-.35-.236-.58v-.322c0-.229.079-.422.236-.58.158-.157.423-.236.795-.236s.637.079.795.236c.157.158.236.351.236.58v.322c0 .23-.079.423-.236.58-.158.158-.423.237-.795.237zm0-3.813c-.372 0-.637-.079-.795-.236-.157-.158-.236-.351-.236-.58v-.322c0-.23.079-.423.236-.58.158-.158.423-.237.795-.237s.637.079.795.237c.157.157.236.35.236.58v.322c0 .229-.079.422-.236.58-.158.157-.423.236-.795.236zm10.023 3.695 2.072-2.814-1.954-2.728h1.579l.665.977.516.773h.075l.516-.773.666-.977h1.46l-1.954 2.663 2.072 2.879h-1.589l-.763-1.117-.526-.784h-.075l-.526.784-.763 1.117zm6.439 0 2.073-2.814-1.954-2.728h1.578l.666.977.516.773h.075l.515-.773.666-.977h1.461l-1.955 2.663 2.073 2.879h-1.589l-.763-1.117-.526-.784h-.075l-.527.784-.762 1.117zm6.44 0 2.073-2.814-1.955-2.728h1.579l.666.977.516.773h.075l.515-.773.666-.977h1.461l-1.955 2.663 2.073 2.879h-1.59l-.762-1.117-.526-.784h-.076l-.526.784-.762 1.117zm6.44 0 2.073-2.814-1.955-2.728h1.579l.666.977.515.773h.075l.516-.773.666-.977h1.461l-1.955 2.663 2.073 2.879h-1.59l-.762-1.117-.527-.784h-.075l-.526.784-.763 1.117zm6.44 0 2.073-2.814-1.955-2.728h1.579l.666.977.515.773h.075l.516-.773.666-.977h1.46l-1.954 2.663 2.072 2.879h-1.589l-.763-1.117-.526-.784h-.075l-.526.784-.763 1.117z" fill="#8dd6d0"/></g><rect fill="#223043" height="167.174" rx="2.89152" stroke="#e65678" stroke-width=".82615" transform="matrix(0 1 -1 0 462 -245.174)" width="76.1739" x="353.587" y="108.413"/><g filter="url(#c)"><path d="m207.385 133.759c-.644 0-1.196-.111-1.654-.333-.451-.222-.82-.515-1.106-.88l.848-.881c.28.322.58.562.903.72.329.15.68.225 1.052.225.43 0 .759-.097.988-.29s.344-.472.344-.838c0-.3-.086-.526-.258-.676-.172-.158-.462-.269-.87-.333l-.795-.129c-.694-.122-1.188-.372-1.482-.752-.293-.386-.44-.841-.44-1.364 0-.716.233-1.264.698-1.643.465-.387 1.11-.58 1.933-.58.587 0 1.092.093 1.515.279.429.186.773.441 1.031.763l-.827.88c-.201-.236-.441-.422-.72-.558-.279-.143-.609-.215-.988-.215-.816 0-1.224.337-1.224 1.01 0 .286.085.505.257.655s.466.261.881.333l.784.139c.652.122 1.135.362 1.45.72s.472.816.472 1.375c0 .351-.06.673-.182.966-.122.287-.301.537-.537.752-.236.208-.53.369-.881.483-.343.115-.741.172-1.192.172zm4.195-.129v-7.496h4.737v1.16h-3.33v1.954h3.211v1.16h-3.211v2.062h3.33v1.16zm6.623 0v-7.496h1.406v6.336h3.319v1.16zm6.257 0v-7.496h4.736v1.16h-3.329v1.954h3.211v1.16h-3.211v2.062h3.329v1.16zm8.963.129c-.98 0-1.707-.336-2.18-1.009-.465-.673-.698-1.629-.698-2.868 0-1.231.233-2.184.698-2.857.473-.68 1.2-1.02 2.18-1.02.373 0 .699.05.978.15.286.101.533.24.741.419.207.172.379.383.515.634.136.243.244.512.323.805l-1.289.366c-.05-.172-.108-.333-.172-.484-.065-.15-.147-.279-.247-.386-.093-.115-.211-.201-.355-.258-.143-.065-.315-.097-.515-.097-.487 0-.838.186-1.053.559-.207.372-.311.88-.311 1.525v1.289c0 .644.104 1.152.311 1.525.215.372.566.558 1.053.558.2 0 .372-.029.515-.086.144-.064.262-.15.355-.258.1-.114.182-.247.247-.397.064-.15.122-.311.172-.483l1.289.365c-.079.293-.187.566-.323.816-.136.244-.308.455-.515.634-.208.172-.455.308-.741.408-.279.1-.605.15-.978.15zm6.945-6.465v6.336h-1.396v-6.336h-2.256v-1.16h5.907v1.16zm12.525-.065c-.322 0-.551-.068-.687-.204-.129-.136-.194-.3-.194-.494v-.257c0-.194.065-.358.194-.495.136-.136.365-.204.687-.204s.548.068.677.204c.136.137.204.301.204.495v.257c0 .194-.068.358-.204.494-.129.136-.355.204-.677.204zm-2.513 5.317h1.826v-3.373h-1.826v-1.084h3.2v4.457h1.697v1.084h-4.897zm9.715.107h-.075c-.15.337-.358.605-.623.806-.257.2-.601.3-1.031.3-.315 0-.605-.057-.87-.172-.257-.121-.479-.3-.666-.537-.186-.243-.329-.547-.429-.912-.1-.366-.15-.792-.15-1.279 0-.973.193-1.7.579-2.18.387-.479.899-.719 1.536-.719.43 0 .774.1 1.031.3.265.201.473.469.623.806h.075v-3.383h1.375v7.947h-1.375zm-1.149.011c.158 0 .305-.018.441-.054.143-.043.264-.1.365-.172.107-.079.189-.175.247-.29.064-.121.096-.261.096-.419v-1.739c0-.158-.032-.294-.096-.409-.058-.121-.14-.218-.247-.29-.101-.078-.222-.136-.365-.171-.136-.043-.283-.065-.441-.065-.401 0-.712.122-.934.365-.215.244-.322.577-.322.999v.881c0 .422.107.755.322.999.222.243.533.365.934.365zm5.796-.784h1.847l-1.407 3.34h-1.042zm11.15 1.75v-5.541h1.375v.977h.053c.122-.301.308-.559.559-.773.258-.222.612-.333 1.063-.333.544 0 .985.182 1.321.547.344.358.516.874.516 1.547v3.576h-1.375v-3.383c0-.802-.347-1.203-1.042-1.203-.143 0-.279.018-.408.054s-.247.093-.354.172c-.101.072-.183.161-.247.268-.058.108-.086.237-.086.387v3.705zm10.897 0c-.337 0-.598-.082-.784-.247-.179-.171-.287-.408-.322-.708h-.054c-.1.343-.297.612-.591.805-.293.186-.655.279-1.084.279-.559 0-1.003-.147-1.332-.44-.33-.294-.494-.702-.494-1.224 0-1.117.82-1.676 2.459-1.676h.978v-.365c0-.351-.086-.616-.258-.795s-.451-.268-.838-.268c-.351 0-.634.068-.848.204-.215.136-.398.311-.548.526l-.784-.666c.172-.308.447-.565.827-.773.386-.215.884-.322 1.493-.322.73 0 1.299.172 1.707.515.416.337.623.841.623 1.515v2.609h.655v1.031zm-2.374-.816c.33 0 .602-.075.817-.225.222-.158.333-.369.333-.634v-.741h-.946c-.751 0-1.127.236-1.127.709v.215c0 .221.082.39.247.504.164.115.39.172.676.172zm3.948.816v-5.541h1.139v.762h.064c.086-.243.208-.451.365-.623.165-.179.394-.268.688-.268.279 0 .501.082.666.247.164.157.272.383.322.676h.054c.093-.25.229-.465.408-.644.186-.186.447-.279.784-.279.408 0 .701.146.88.44s.269.727.269 1.3v3.93h-1.128v-3.769c0-.323-.046-.548-.139-.677-.086-.129-.219-.193-.398-.193-.164 0-.304.053-.419.161-.107.107-.161.272-.161.494v3.984h-1.138v-3.769c0-.323-.043-.548-.129-.677s-.218-.193-.397-.193c-.172 0-.315.053-.43.161-.107.107-.161.272-.161.494v3.984zm9.394.129c-.444 0-.838-.068-1.182-.204-.343-.136-.633-.329-.87-.58-.229-.25-.404-.551-.526-.902-.122-.358-.182-.759-.182-1.203 0-.451.06-.855.182-1.213.129-.358.308-.663.537-.913.229-.251.505-.444.827-.58.329-.136.698-.204 1.106-.204.401 0 .763.068 1.085.204.322.129.594.315.816.558.229.244.405.537.527.881.121.344.182.723.182 1.138v.451h-3.888v.14c0 .401.126.727.376.977.251.244.602.366 1.053.366.343 0 .637-.069.88-.205.251-.143.459-.329.623-.558l.784.784c-.2.294-.494.544-.88.752-.38.207-.863.311-1.45.311zm-.097-4.79c-.387 0-.698.122-.934.365-.237.244-.355.566-.355.967v.075h2.513v-.096c0-.401-.111-.72-.333-.956-.214-.237-.511-.355-.891-.355zm10.517 4.661v-7.496h4.897v1.16h-3.49v1.954h3.147v1.16h-3.147v3.222zm7.814 0h-1.407v-7.496h2.846c.731 0 1.289.208 1.676.623s.58.981.58 1.697c0 .551-.129 1.016-.387 1.396-.25.372-.612.609-1.085.709l1.601 3.071h-1.547l-1.428-2.91h-.849zm1.149-4.006c.38 0 .652-.075.817-.225.164-.158.247-.405.247-.741v-.408c0-.337-.083-.58-.247-.731-.165-.157-.437-.236-.817-.236h-1.149v2.341zm6.247 4.135c-.487 0-.909-.086-1.267-.258-.358-.179-.656-.433-.892-.762-.229-.329-.401-.734-.515-1.214-.108-.479-.161-1.027-.161-1.643 0-.608.053-1.153.161-1.632.114-.487.286-.895.515-1.225.236-.329.534-.58.892-.751.358-.179.78-.269 1.267-.269.974 0 1.69.34 2.148 1.02.458.681.687 1.633.687 2.857s-.229 2.177-.687 2.857-1.174 1.02-2.148 1.02zm0-1.149c.251 0 .462-.046.634-.14.171-.1.307-.239.408-.418.107-.179.182-.398.225-.656.05-.264.075-.558.075-.88v-1.278c0-.645-.1-1.153-.3-1.525-.194-.373-.541-.559-1.042-.559s-.852.186-1.053.559c-.193.372-.29.88-.29 1.525v1.289c0 .644.097 1.152.29 1.525.201.372.552.558 1.053.558zm7.922-2.449.064-2.169h-.096l-1.45 3.856-1.45-3.856h-.097l.065 2.169v3.469h-1.225v-7.496h1.676l1.041 2.76h.076l1.052-2.76h1.568v7.496h-1.224zm-126.319 11.928h1.375v.977h.075c.15-.337.354-.605.612-.806.265-.2.612-.3 1.042-.3.315 0 .601.061.859.182.265.115.491.294.677.537.186.237.329.537.429.902.101.366.151.792.151 1.278 0 .487-.05.913-.151 1.279-.1.365-.243.669-.429.912-.186.237-.412.416-.677.537-.258.115-.544.172-.859.172-.43 0-.777-.1-1.042-.3-.258-.201-.462-.469-.612-.806h-.075v3.125h-1.375zm2.524 4.575c.401 0 .709-.122.924-.365.222-.244.333-.577.333-.999v-.881c0-.422-.111-.755-.333-.999-.215-.243-.523-.365-.924-.365-.315 0-.587.079-.816.236-.222.151-.333.383-.333.699v1.739c0 .315.111.552.333.709.229.151.501.226.816.226zm3.98-.118h1.375v-3.373h-1.375v-1.084h2.75v1.514h.086c.05-.193.118-.38.204-.559.093-.186.207-.347.343-.483.144-.143.315-.258.516-.344.2-.085.44-.128.719-.128h.602v1.288h-1.139c-.415 0-.741.122-.977.366-.236.243-.354.554-.354.934v1.869h1.922v1.084h-4.672zm8.857 1.213c-.423 0-.802-.068-1.139-.204-.329-.136-.612-.329-.848-.58-.229-.25-.408-.555-.537-.913-.122-.358-.183-.759-.183-1.203 0-.443.061-.844.183-1.202.129-.358.308-.663.537-.913.236-.251.519-.444.848-.58.337-.136.716-.204 1.139-.204.415 0 .791.068 1.127.204.337.136.62.329.849.58.236.25.415.555.537.913.129.358.193.759.193 1.202 0 .444-.064.845-.193 1.203-.122.358-.301.663-.537.913-.229.251-.512.444-.849.58-.336.136-.712.204-1.127.204zm0-1.052c.393 0 .705-.118.934-.355.229-.243.344-.598.344-1.063v-.859c0-.466-.115-.816-.344-1.053-.229-.243-.541-.365-.934-.365-.394 0-.706.122-.935.365-.229.237-.344.587-.344 1.053v.859c0 .465.115.82.344 1.063.229.237.541.355.935.355zm4.023-.161h1.697v-3.373h-1.805v-1.084h1.805v-.903c0-.222.028-.422.086-.601.064-.186.161-.344.29-.473.129-.136.29-.239.483-.311.2-.079.433-.118.698-.118h1.869v1.085h-2.052v1.321h2.052v1.084h-2.052v3.373h1.805v1.084h-4.876zm9.2-5.317c-.322 0-.552-.068-.688-.204-.128-.136-.193-.3-.193-.494v-.257c0-.194.065-.358.193-.495.136-.136.366-.204.688-.204s.548.068.676.204c.136.137.204.301.204.495v.257c0 .194-.068.358-.204.494-.128.136-.354.204-.676.204zm-2.513 5.317h1.825v-3.373h-1.825v-1.084h3.2v4.457h1.697v1.084h-4.897zm6.16 0h1.762v-5.778h-1.762v-1.085h3.136v6.863h1.772v1.084h-4.908zm9.018 1.213c-.444 0-.838-.068-1.182-.204s-.634-.329-.87-.58c-.229-.25-.404-.551-.526-.902-.122-.358-.183-.759-.183-1.203 0-.451.061-.855.183-1.213.129-.358.308-.663.537-.913.229-.251.505-.444.827-.58.329-.136.698-.204 1.106-.204.401 0 .763.068 1.085.204.322.129.594.315.816.558.229.244.405.537.526.881.122.344.183.723.183 1.138v.451h-3.888v.14c0 .401.125.727.376.977.251.244.601.366 1.052.366.344 0 .638-.069.881-.205.251-.143.458-.329.623-.558l.784.784c-.2.294-.494.544-.881.752-.379.207-.862.311-1.449.311zm-.097-4.79c-.387 0-.698.122-.935.365-.236.244-.354.566-.354.967v.075h2.513v-.096c0-.401-.111-.72-.333-.956-.215-.237-.512-.355-.891-.355z" fill="#f8f8f8"/></g><g filter="url(#d)"><path d="m204.698 167-.505-7.496h1.214l.236 4.317.097 1.783h.097l.751-4.371h1.311l.751 4.371h.097l.097-1.783.236-4.317h1.171l-.505 7.496h-1.815l-.666-4.242h-.086l-.666 4.242zm10.059-3.222h-2.191v3.222h-1.407v-7.496h1.407v3.114h2.191v-3.114h1.407v7.496h-1.407zm3.014 3.222v-7.496h4.736v1.159h-3.329v1.955h3.211v1.16h-3.211v2.062h3.329v1.16zm7.814 0h-1.406v-7.496h2.846c.73 0 1.288.207 1.675.622.387.416.58.981.58 1.697 0 .552-.129 1.017-.387 1.397-.25.372-.612.608-1.084.708l1.6 3.072h-1.547l-1.428-2.911h-.849zm1.15-4.006c.379 0 .651-.075.816-.226.165-.157.247-.404.247-.741v-.408c0-.336-.082-.58-.247-.73-.165-.158-.437-.236-.816-.236h-1.15v2.341zm3.916 4.006v-7.496h4.736v1.159h-3.33v1.955h3.212v1.16h-3.212v2.062h3.33v1.16zm15.553-6.401c-.322 0-.551-.068-.687-.204-.129-.136-.193-.301-.193-.494v-.258c0-.193.064-.358.193-.494.136-.136.365-.204.687-.204s.548.068.677.204c.136.136.204.301.204.494v.258c0 .193-.068.358-.204.494-.129.136-.355.204-.677.204zm-2.513 5.316h1.826v-3.372h-1.826v-1.085h3.201v4.457h1.697v1.085h-4.898zm9.716.108h-.076c-.15.336-.358.605-.622.805-.258.201-.602.301-1.032.301-.315 0-.605-.057-.869-.172-.258-.122-.48-.301-.666-.537-.186-.243-.33-.548-.43-.913s-.15-.791-.15-1.278c0-.974.193-1.7.58-2.18.386-.48.898-.72 1.535-.72.43 0 .774.101 1.032.301.264.201.472.469.622.806h.076v-3.384h1.374v7.948h-1.374zm-1.15.01c.158 0 .305-.017.441-.053.143-.043.265-.101.365-.172.107-.079.19-.176.247-.29.064-.122.097-.261.097-.419v-1.74c0-.157-.033-.293-.097-.408-.057-.122-.14-.218-.247-.29-.1-.079-.222-.136-.365-.172-.136-.043-.283-.064-.441-.064-.401 0-.712.122-.934.365-.215.243-.322.576-.322.999v.88c0 .423.107.756.322.999.222.244.533.365.934.365zm10.367-2.942v-1.107h5.112v1.107zm0 2.373v-1.106h5.112v1.106zm16.477.559h-.053c-.122.3-.312.562-.57.784-.25.214-.601.322-1.052.322-.544 0-.988-.179-1.332-.537-.336-.365-.505-.884-.505-1.557v-3.577h1.375v3.383c0 .802.347 1.203 1.042 1.203.136 0 .268-.018.397-.054.136-.035.254-.089.355-.161.107-.078.189-.171.247-.279.064-.107.096-.236.096-.387v-3.705h1.375v5.542h-1.375zm5.377 1.106c-.609 0-1.135-.093-1.579-.279-.444-.194-.791-.451-1.042-.774l.806-.73c.229.251.49.444.784.58.3.136.648.204 1.042.204.343 0 .619-.057.826-.172.208-.114.312-.29.312-.526 0-.201-.072-.337-.215-.408-.136-.072-.318-.125-.548-.161l-.891-.14c-.229-.036-.455-.086-.677-.15-.214-.072-.408-.168-.58-.29-.164-.122-.297-.276-.397-.462-.1-.193-.15-.426-.15-.698 0-.58.214-1.024.644-1.332.437-.308 1.035-.462 1.794-.462.537 0 .991.075 1.364.226.379.15.691.361.934.634l-.72.794c-.157-.172-.368-.322-.633-.451-.258-.136-.587-.204-.988-.204-.702 0-1.053.219-1.053.655 0 .201.072.34.215.419.143.072.329.125.558.161l.881.14c.236.036.462.089.677.161.222.064.415.157.58.279.172.122.308.276.408.462s.15.415.15.687c0 .573-.222 1.024-.666 1.354-.436.322-1.049.483-1.836.483zm6.59 0c-.444 0-.838-.068-1.181-.204-.344-.136-.634-.33-.87-.58-.23-.251-.405-.551-.527-.902-.121-.358-.182-.759-.182-1.203 0-.451.061-.856.182-1.214.129-.358.308-.662.537-.913.229-.25.505-.444.827-.58.33-.136.698-.204 1.107-.204.4 0 .762.068 1.084.204.322.129.595.315.816.559.23.243.405.537.527.881.121.343.182.723.182 1.138v.451h-3.888v.14c0 .401.126.726.376.977.251.243.602.365 1.053.365.344 0 .637-.068.881-.204.25-.143.458-.329.622-.558l.784.784c-.2.293-.494.544-.88.751-.38.208-.863.312-1.45.312zm-.097-4.79c-.386 0-.698.122-.934.365s-.355.566-.355.967v.075h2.514v-.097c0-.401-.111-.719-.333-.956-.215-.236-.512-.354-.892-.354zm3.991 3.576h1.375v-3.372h-1.375v-1.085h2.75v1.515h.086c.05-.194.118-.38.204-.559.093-.186.207-.347.343-.483.144-.143.315-.258.516-.344.2-.086.44-.129.719-.129h.602v1.289h-1.139c-.415 0-.741.122-.977.365-.236.244-.354.555-.354.935v1.868h1.922v1.085h-4.672zm6.279 3.072v-1.149h5.155v1.149zm9.361-8.388c-.322 0-.551-.068-.687-.204-.129-.136-.194-.301-.194-.494v-.258c0-.193.065-.358.194-.494.136-.136.365-.204.687-.204s.548.068.677.204c.136.136.204.301.204.494v.258c0 .193-.068.358-.204.494-.129.136-.355.204-.677.204zm-2.513 5.316h1.826v-3.372h-1.826v-1.085h3.2v4.457h1.697v1.085h-4.897zm9.715.108h-.075c-.15.336-.358.605-.623.805-.258.201-.601.301-1.031.301-.315 0-.605-.057-.87-.172-.257-.122-.479-.301-.666-.537-.186-.243-.329-.548-.429-.913s-.151-.791-.151-1.278c0-.974.194-1.7.58-2.18.387-.48.899-.72 1.536-.72.43 0 .773.101 1.031.301.265.201.473.469.623.806h.075v-3.384h1.375v7.948h-1.375zm-1.149.01c.158 0 .304-.017.44-.053.144-.043.265-.101.366-.172.107-.079.189-.176.247-.29.064-.122.096-.261.096-.419v-1.74c0-.157-.032-.293-.096-.408-.058-.122-.14-.218-.247-.29-.101-.079-.222-.136-.366-.172-.136-.043-.282-.064-.44-.064-.401 0-.712.122-.934.365-.215.243-.322.576-.322.999v.88c0 .423.107.756.322.999.222.244.533.365.934.365z" fill="#8dd6d0"/></g><path d="m185.102 150.266c-1.57 0-2.843-1.272-2.843-2.842 0-1.571 1.273-2.843 2.843-2.843s2.843 1.272 2.843 2.843c0 1.57-1.273 2.842-2.843 2.842z" fill="#e65678"/><path d="m185.102 333.467c-1.57 0-2.843-1.273-2.843-2.843s1.273-2.843 2.843-2.843 2.843 1.273 2.843 2.843-1.273 2.843-2.843 2.843z" fill="#e65678"/><path d="m75.133 357.916c-.3226-.323-.8457-.323-1.1683 0l-5.2576 5.258c-.3227.322-.3227.845 0 1.168.3226.323.8457.323 1.1683 0l4.6734-4.674 4.6734 4.674c.3227.323.8458.323 1.1684 0s.3226-.846 0-1.168zm.242 53.445v-52.861h-1.6523v52.861z" fill="#1eb4d4"/><path d="m74.5847 264.416c-.3227-.323-.8458-.323-1.1684 0l-5.2576 5.257c-.3226.323-.3226.846 0 1.169.3227.322.8457.322 1.1684 0l4.6734-4.674 4.6734 4.674c.3226.322.8457.322 1.1683 0 .3227-.323.3227-.846 0-1.169zm.2419 40.584v-40h-1.6523v40z" fill="#e65678"/><path d="m74 194.899v-22.459" stroke="#e65678" stroke-width="1.6523"/><path d="m74.5842 102.416c-.3227-.323-.8457-.323-1.1684 0l-5.2576 5.257c-.3226.323-.3226.846 0 1.169.3227.322.8458.322 1.1684 0l4.6734-4.674 4.6734 4.674c.3226.322.8457.322 1.1684 0 .3226-.323.3226-.846 0-1.169zm.242 27.812-.0001-27.228h-1.6522v27.228z" fill="#e65678"/><rect fill="#223043" height="132" rx="3.3046" transform="matrix(0 1 -1 0 540 260)" width="58" x="140" y="400"/><path d="m93.551 434-.636-2.232h-2.664l-.636 2.232h-1.368l2.448-8.376h1.836l2.448 8.376zm-1.92-7.02h-.096l-1.032 3.672h2.16zm5.7793 7.02v-8.376h3.1317c.8 0 1.408.224 1.824.672.424.448.636 1.064.636 1.848s-.212 1.4-.636 1.848c-.416.448-1.024.672-1.824.672h-1.7877v3.336zm1.344-4.452h1.5837c.832 0 1.248-.384 1.248-1.152v-.516c0-.76-.416-1.14-1.248-1.14h-1.5837zm7.0517 4.452v-8.376h3.132c.8 0 1.408.224 1.824.672.424.448.636 1.064.636 1.848s-.212 1.4-.636 1.848c-.416.448-1.024.672-1.824.672h-1.788v3.336zm1.344-4.452h1.584c.832 0 1.248-.384 1.248-1.152v-.516c0-.76-.416-1.14-1.248-1.14h-1.584z" fill="#f8f8f8"/><path d="m11.3046 458c-1.82508 0-3.3046-1.48-3.3046-3.305v-51.39c0-1.825 1.47952-3.305 3.3046-3.305h48.6954v58z" fill="#33455d"/><rect height="28.6888" rx="2" stroke="#1eb4d4" stroke-width="1.5" width="18.827" x="24.1074" y="414.612"/><circle cx="33.5576" cy="438.519" fill="#1eb4d4" r="1.47122"/><rect fill="#223043" height="132.546" rx="3" transform="matrix(0 1 -1 0 344.921 64.123)" width="48.966" x="140.399" y="204.522"/><path d="m57.8069 225.564c.6583-2.003.2623-6-1.0132-7.476-.1672-.193-.4783-.166-.6172.048l-1.5712 2.411c-.3883.482-1.0878.593-1.6149.256-1.705-1.091-3.7417-1.724-5.93-1.724-2.1884 0-4.2251.633-5.9301 1.724-.5246.337-1.224.224-1.6149-.256l-1.5712-2.411c-.1389-.214-.45-.239-.6172-.048-1.2755 1.478-1.6715 5.475-1.0132 7.476.2186.666.2778 1.37.1492 2.054-.1286.679-.2572 1.498-.2572 2.069 0 5.86 4.8603 10.608 10.852 10.608 5.9943 0 10.8519-4.751 10.8519-10.608 0-.571-.1285-1.39-.2571-2.069-.126-.684-.0643-1.388.1543-2.054zm-10.7491 12.363c-4.634 0-8.4013-3.685-8.4013-8.215 0-.148.0052-.294.0129-.44.1671-3.087 2.0855-5.724 4.7985-6.981 1.0878-.508 2.3067-.789 3.5925-.789 1.2857 0 2.5021.281 3.5924.792 2.713 1.257 4.6314 3.896 4.7985 6.981.0077.146.0129.294.0129.44-.0026 4.527-3.7725 8.212-8.4064 8.212z" fill="#1eb4d4"/><path d="m50.6989 232.875-2.1473-3.64-1.8412-3.035c-.0437-.073-.1234-.115-.2083-.115h-1.759c-.0874 0-.1671.045-.2108.12-.0437.073-.0412.164.0026.237l1.7615 2.893-2.3633 3.525c-.0488.072-.0514.165-.0103.241.0412.075.1235.123.2135.123h1.7718c.0823 0 .1594-.04.2031-.108l1.2781-1.951 1.1469 1.943c.0437.073.1234.119.2083.119h1.7461c.0874 0 .1671-.046.2083-.119.0437-.07.0437-.16 0-.233z" fill="#1eb4d4"/><path d="m67.9182 223.614h2.2398v12.006h-2.2398v-5.116h-2.5304v5.119h-2.2399v-12.009h2.2399v5.214h2.5304z" fill="#f8f8f8"/><path d="m77.0682 235.622-.468-2.493h-2.6873l-.4294 2.493h-2.2398l2.4712-12.006h3.0164l2.5896 12.006zm-2.8621-4.15h2.0829l-1.0697-5.747z" fill="#f8f8f8"/><path d="m84.31 233.433v-2.569c0-.204-.0386-.34-.1158-.41-.0771-.071-.2211-.106-.4294-.106h-1.5764c-1.3372 0-2.0058-.633-2.0058-1.903v-2.946c0-1.257.6995-1.883 2.101-1.883h2.1421c1.4015 0 2.1009.629 2.1009 1.883v1.674h-2.2578v-1.37c0-.203-.0386-.339-.1157-.41-.0772-.07-.2212-.105-.4295-.105h-.7406c-.2211 0-.3703.035-.4474.105-.0772.071-.1157.207-.1157.41v2.416c0 .204.0385.339.1157.41.0771.07.2263.105.4474.105h1.5378c1.3629 0 2.0444.621 2.0444 1.866v3.139c0 1.257-.7072 1.883-2.1215 1.883h-2.1036c-1.4143 0-2.1215-.628-2.1215-1.883v-1.656h2.2373v1.35c0 .203.0385.339.1157.41.0771.07.2263.105.4474.105h.7406c.2083 0 .3498-.035.4295-.105.0797-.071.1209-.207.1209-.41z" fill="#f8f8f8"/><path d="m92.5405 223.614h2.2372v10.123c0 1.257-.7072 1.883-2.1215 1.883h-2.3735c-1.4144 0-2.1216-.628-2.1216-1.883v-10.123h2.2398v9.819c0 .204.0386.339.1158.41.0771.07.2211.105.4294.105h1.0312c.2212 0 .3703-.035.4475-.105.0771-.071.1157-.206.1157-.41z" fill="#f8f8f8"/><path d="m98.8671 230.942v4.681h-2.2372v-12.009h4.5161c1.414 0 2.121.628 2.121 1.883v3.559c0 1.041-.473 1.65-1.422 1.828l2.044 4.739h-2.414l-1.8698-4.681zm0-5.654v4.035h1.6149c.208 0 .35-.035.43-.106.077-.07.115-.206.115-.409v-3.004c0-.204-.038-.34-.115-.41-.078-.071-.222-.106-.43-.106z" fill="#f8f8f8"/><path d="m110.04 235.622-.468-2.493h-2.687l-.429 2.493h-2.238l2.472-12.006h3.016l2.589 12.006zm-2.859-4.15h2.083l-1.07-5.747z" fill="#f8f8f8"/><rect fill="#223043" height="48.984" rx="24.492" stroke="#e65678" stroke-width=".82615" width="48.984" x="49.6343" y="305.399"/><g fill="#e65678"><path d="m73.9143 344.452 12.2361-7.229v-14.431l-12.2361-7.229-12.2362 7.229v14.431zm10.8357-8.027-10.8395 6.404-10.8396-6.404v-12.838l10.8396-6.404 10.8395 6.404z"/><path d="m73.9116 319.17c-1.3524 0-2.4487-1.096-2.4487-2.448 0-1.353 1.0963-2.449 2.4487-2.449s2.4488 1.096 2.4488 2.449c0 1.352-1.0964 2.448-2.4488 2.448z"/><path d="m73.9116 345.74c-1.3524 0-2.4487-1.097-2.4487-2.449 0-1.353 1.0963-2.449 2.4487-2.449s2.4488 1.096 2.4488 2.449c0 1.352-1.0964 2.449-2.4488 2.449z"/><path d="m85.1011 338.749c-1.3524 0-2.4488-1.097-2.4488-2.449s1.0964-2.449 2.4488-2.449 2.4487 1.097 2.4487 2.449-1.0963 2.449-2.4487 2.449z"/><path d="m62.7256 338.749c-1.3524 0-2.4488-1.097-2.4488-2.449s1.0964-2.449 2.4488-2.449 2.4487 1.097 2.4487 2.449-1.0963 2.449-2.4487 2.449z"/><path d="m85.1011 326.16c-1.3524 0-2.4488-1.096-2.4488-2.448 0-1.353 1.0964-2.449 2.4488-2.449s2.4487 1.096 2.4487 2.449c0 1.352-1.0963 2.448-2.4487 2.448z"/><path d="m62.7256 326.16c-1.3524 0-2.4488-1.096-2.4488-2.448 0-1.353 1.0964-2.449 2.4488-2.449s2.4487 1.096 2.4487 2.449c0 1.352-1.0963 2.448-2.4487 2.448z"/><path d="m61.1738 337.349h25.479l-12.7395-22.391zm23.0719-1.401h-20.6686l10.3362-18.163z"/></g><g filter="url(#e)"><rect fill="#223043" height="49.8102" rx="24.9051" width="49.8102" x="49" y="122.63"/><rect height="48.984" rx="24.492" stroke="#e65678" stroke-width=".82615" width="48.984" x="49.4131" y="123.043"/></g><g filter="url(#f)"><path d="m64.9691 152.169c-.8426 0-1.5636-.146-2.1628-.436-.5899-.29-1.0721-.674-1.4466-1.151l1.1095-1.152c.3652.421.7584.735 1.1798.941.4307.196.8894.295 1.3763.295.5618 0 .9925-.127 1.2921-.379.2996-.253.4494-.618.4494-1.096 0-.393-.1123-.688-.337-.885-.2247-.206-.6039-.351-1.1376-.435l-1.0393-.169c-.9082-.159-1.5543-.487-1.9382-.983-.3839-.505-.5758-1.1-.5758-1.783 0-.937.3043-1.653.9129-2.149.6086-.506 1.4513-.759 2.528-.759.7678 0 1.4279.122 1.9803.366.5618.243 1.0112.575 1.3483.997l-1.0815 1.151c-.2621-.309-.5758-.552-.9409-.73-.3652-.187-.7959-.281-1.2921-.281-1.0674 0-1.6011.44-1.6011 1.32 0 .375.1123.66.3371.857.2247.197.6085.342 1.1516.435l1.0253.183c.852.159 1.484.473 1.896.941.4119.468.6179 1.067.6179 1.798 0 .458-.0796.88-.2387 1.264-.1592.374-.3933.702-.7023.983-.3089.271-.6928.482-1.1516.632-.4494.15-.9691.225-1.559.225zm11.5673 2.401h-1.896c-.6929 0-1.1892-.178-1.4888-.534-.2996-.346-.4494-.809-.4494-1.39v-.548c-1.0018-.178-1.7368-.697-2.205-1.559-.4681-.861-.7022-2.008-.7022-3.441 0-.795.0702-1.507.2107-2.134.1498-.637.3745-1.171.6741-1.601.309-.431.6975-.759 1.1657-.984.4681-.234 1.0206-.351 1.6572-.351 1.2734 0 2.2097.445 2.809 1.335.5992.889.8988 2.134.8988 3.735 0 1.433-.2341 2.58-.7022 3.441-.4682.862-1.2032 1.381-2.205 1.559v1.138h2.2331zm-3.0337-3.904c.3277 0 .604-.061.8287-.183.2247-.131.4026-.313.5337-.548.1404-.234.2387-.519.2949-.856.0655-.347.0983-.731.0983-1.152v-1.671c0-.843-.1311-1.508-.3932-1.995-.2528-.486-.7069-.73-1.3624-.73-.6554 0-1.1142.244-1.3763.73-.2528.487-.3792 1.152-.3792 1.995v1.685c0 .843.1264 1.508.3792 1.994.2621.487.7209.731 1.3763.731zm5.6124 1.334v-9.803h1.8398v8.286h4.3398v1.517z" fill="#8dd6d0"/></g><path d="m8 0h132v93.6954c0 1.8251-1.48 3.3046-3.305 3.3046h-125.3904c-1.82508 0-3.3046-1.4795-3.3046-3.3046z" fill="#223043"/><path d="m8 58v-54.6954c0-1.82508 1.47952-3.30459624 3.3046-3.30459631l61.6954-.00000242v57.99999873z" fill="#33455d"/><path d="m30 34.6074v4.9454c0 1.1852 4.5662 2.1461 10.1989 2.1461 5.6326 0 10.1988-.9609 10.1988-2.1461v-4.9454" stroke="#1eb4d4" stroke-width="1.5"/><path d="m32.9945 33.0887c-1.8491.3885-2.993.9255-2.993 1.5188 0 1.1852 4.5662 2.1461 10.1988 2.1461 5.6327 0 10.1989-.9609 10.1989-2.1461 0-.5755-1.0764-1.0981-2.8286-1.4834-.0852-.0188-.172-.0372-.2603-.0553" stroke="#1eb4d4" stroke-width="1.5"/><path d="m30 26.5803v4.9454c0 1.1852 4.5662 2.1461 10.1989 2.1461 5.6326 0 10.1988-.9609 10.1988-2.1461v-4.9454" stroke="#1eb4d4" stroke-width="1.5"/><path d="m32.9945 25.0616c-1.8491.3885-2.993.9255-2.993 1.5188 0 1.1852 4.5662 2.1461 10.1988 2.1461 5.6327 0 10.1989-.9609 10.1989-2.1461 0-.5755-1.0764-1.0981-2.8286-1.4834-.0852-.0188-.172-.0372-.2603-.0553" stroke="#1eb4d4" stroke-width="1.5"/><path d="m30 18.5535v4.9453c0 1.1853 4.5662 2.1461 10.1989 2.1461 5.6326 0 10.1988-.9608 10.1988-2.1461v-4.9453" stroke="#1eb4d4" stroke-width="1.5"/><ellipse cx="40.1993" cy="18.5985" rx="10.1989" ry="2.14609" stroke="#1eb4d4" stroke-width="1.5"/><path d="m136.695-.00000013c1.825.00000007 3.305 1.47952013 3.305 3.30460013v54.6954h-65v-58.00000254z" fill="#33455d"/><path d="m97 34.6074v4.9454c0 1.1852 4.566 2.1461 10.199 2.1461s10.199-.9609 10.199-2.1461v-4.9454" stroke="#1eb4d4" stroke-width="1.5"/><path d="m99.9945 33.0887c-1.8491.3885-2.993.9255-2.993 1.5188 0 1.1852 4.5665 2.1461 10.1985 2.1461 5.633 0 10.199-.9609 10.199-2.1461 0-.5755-1.076-1.0981-2.828-1.4834-.086-.0188-.172-.0372-.261-.0553" stroke="#1eb4d4" stroke-width="1.5"/><path d="m97 26.5803v4.9454c0 1.1852 4.566 2.1461 10.199 2.1461s10.199-.9609 10.199-2.1461v-4.9454" stroke="#1eb4d4" stroke-width="1.5"/><path d="m99.9945 25.0616c-1.8491.3885-2.993.9255-2.993 1.5188 0 1.1852 4.5665 2.1461 10.1985 2.1461 5.633 0 10.199-.9609 10.199-2.1461 0-.5755-1.076-1.0981-2.828-1.4834-.086-.0188-.172-.0372-.261-.0553" stroke="#1eb4d4" stroke-width="1.5"/><path d="m97 18.5535v4.9453c0 1.1853 4.566 2.1461 10.199 2.1461s10.199-.9608 10.199-2.1461v-4.9453" stroke="#1eb4d4" stroke-width="1.5"/><ellipse cx="107.199" cy="18.5985" rx="10.1989" ry="2.14609" stroke="#1eb4d4" stroke-width="1.5"/><path d="m38.8051 73.624h2.496c1.072 0 1.864.356 2.376 1.068.52.712.78 1.752.78 3.12s-.26 2.408-.78 3.12c-.512.712-1.304 1.068-2.376 1.068h-2.496zm2.412 7.272c.616 0 1.072-.204 1.368-.612.304-.416.456-1.008.456-1.776v-1.392c0-.768-.152-1.356-.456-1.764-.296-.416-.752-.624-1.368-.624h-1.08v6.168zm10.5433 1.104-.636-2.232h-2.664l-.636 2.232h-1.368l2.448-8.376h1.836l2.448 8.376zm-1.92-7.02h-.096l-1.032 3.672h2.16zm9.0433-.228v7.248h-1.344v-7.248h-2.628v-1.128h6.6v1.128zm9.6673 7.248-.636-2.232h-2.664l-.636 2.232h-1.368l2.448-8.376h1.836l2.448 8.376zm-1.92-7.02h-.096l-1.032 3.672h2.16zm5.7673-1.356h2.892c.76 0 1.348.196 1.764.588.424.392.636.928.636 1.608 0 .488-.12.876-.36 1.164s-.564.492-.972.612v.06c.488.112.88.328 1.176.648.296.312.444.756.444 1.332 0 .344-.056.66-.168.948s-.272.54-.48.756c-.208.208-.46.372-.756.492-.288.112-.608.168-.96.168h-3.216zm2.808 7.344c.448 0 .792-.092 1.032-.276s.36-.48.36-.888v-.432c0-.408-.12-.704-.36-.888s-.584-.276-1.032-.276h-1.488v2.76zm-.192-3.744c.424 0 .744-.08.96-.24.224-.168.336-.444.336-.828v-.432c0-.384-.112-.656-.336-.816-.216-.168-.536-.252-.96-.252h-1.296v2.568zm10.3274 4.776-.636-2.232h-2.664l-.636 2.232h-1.368l2.448-8.376h1.836l2.448 8.376zm-1.92-7.02h-.096l-1.032 3.672h2.16zm8.2993 7.164c-.728 0-1.34-.128-1.836-.384s-.904-.596-1.224-1.02l.864-.828c.32.384.66.668 1.02.852.36.176.768.264 1.224.264.528 0 .932-.12 1.212-.36.288-.24.432-.584.432-1.032 0-.36-.104-.636-.312-.828-.208-.2-.564-.344-1.068-.432l-.912-.144c-.4-.064-.736-.168-1.008-.312-.272-.152-.492-.328-.66-.528-.168-.208-.292-.436-.372-.684-.072-.256-.108-.524-.108-.804 0-.792.256-1.392.768-1.8.512-.416 1.216-.624 2.112-.624.664 0 1.228.108 1.692.324.472.208.852.504 1.14.888l-.84.84c-.232-.28-.508-.504-.828-.672-.312-.176-.7-.264-1.164-.264-.496 0-.876.108-1.14.324-.256.208-.384.516-.384.924 0 .344.1.616.3.816.208.192.572.332 1.092.42l.888.156c.752.136 1.3.412 1.644.828.344.408.516.908.516 1.5 0 .384-.068.736-.204 1.056-.128.32-.324.592-.588.816-.256.224-.576.4-.96.528-.376.12-.808.18-1.296.18zm5.8993-.144v-8.376h5.2437v1.128h-3.8997v2.436h3.7557v1.128h-3.7557v2.556h3.8997v1.128zm10.8917.144c-.728 0-1.34-.128-1.836-.384s-.904-.596-1.224-1.02l.864-.828c.32.384.66.668 1.02.852.36.176.768.264 1.224.264.528 0 .932-.12 1.212-.36.288-.24.432-.584.432-1.032 0-.36-.104-.636-.312-.828-.208-.2-.564-.344-1.068-.432l-.912-.144c-.4-.064-.736-.168-1.008-.312-.272-.152-.492-.328-.66-.528-.168-.208-.292-.436-.372-.684-.072-.256-.108-.524-.108-.804 0-.792.256-1.392.768-1.8.512-.416 1.216-.624 2.112-.624.664 0 1.228.108 1.692.324.472.208.852.504 1.14.888l-.84.84c-.232-.28-.508-.504-.828-.672-.312-.176-.7-.264-1.164-.264-.496 0-.876.108-1.14.324-.256.208-.384.516-.384.924 0 .344.1.616.3.816.208.192.572.332 1.092.42l.888.156c.752.136 1.3.412 1.644.828.344.408.516.908.516 1.5 0 .384-.068.736-.204 1.056-.128.32-.324.592-.588.816-.256.224-.576.4-.96.528-.376.12-.808.18-1.296.18z" fill="#f8f8f8"/></svg>